<svg width="118" height="118" viewBox="0 0 118 118" fill="none" xmlns="http://www.w3.org/2000/svg">
<path d="M47.3064 50.0926C42.4037 40.6951 34.6988 32.872 25.4814 27.7135C33.8743 27.3813 42.2519 26.8296 50.615 26.0692C53.2017 25.8335 52.9314 21.8042 50.3338 22.0407C39.1645 23.0521 27.9581 23.691 16.7469 23.9442C14.8308 23.9898 14.0866 27.0751 15.9882 27.7696C28.055 32.1887 38.0326 40.9672 43.9685 52.3663C45.1666 54.6762 48.503 52.3806 47.3064 50.0926Z" fill="#EA3D3C"/>
<path d="M102.498 89.7101C93.8662 69.7191 78.6505 53.3754 60.6706 41.3611C55.5685 37.9559 50.2691 34.8844 44.7834 32.1458C42.4522 30.9849 40.6644 34.6063 42.9956 35.7672C61.5451 45.0393 78.4324 58.3102 90.1595 75.5592C93.4789 80.4455 96.3445 85.6283 98.6869 91.0571C99.7015 93.424 103.525 92.0982 102.498 89.7101Z" fill="#EA3D3C"/>
</svg>
