<svg width="140" height="26" viewBox="0 0 140 26" fill="none" xmlns="http://www.w3.org/2000/svg">
<path d="M18.496 1.71196V25.312H13.52V13.984L15.76 15.488H2.736L4.976 14.048V25.312H0V1.71196H4.976V13.12L2.736 11.632H15.76L13.52 13.12V1.71196H18.496Z" fill="#EA3D3C"/>
<path d="M28.1503 25.664C26.9129 25.664 25.8089 25.4666 24.8383 25.072C23.8783 24.6773 23.1263 24.1066 22.5823 23.36C22.0382 22.6133 21.7663 21.7066 21.7663 20.64C21.7663 19.4346 22.0969 18.4533 22.7583 17.696C23.4196 16.9386 24.2943 16.3626 25.3823 15.968C26.4809 15.5626 27.6702 15.296 28.9503 15.168C30.8169 14.9866 32.1023 14.8213 32.8063 14.672C33.5209 14.5226 33.8783 14.2613 33.8783 13.888C33.8783 13.8773 33.8783 13.8666 33.8783 13.856C33.8783 13.2266 33.5742 12.7306 32.9663 12.368C32.3689 12.0053 31.5316 11.824 30.4543 11.824C29.3129 11.824 28.4382 12.032 27.8302 12.448C27.2329 12.8533 26.9342 13.4773 26.9342 14.32H22.0543C22.0543 12.9546 22.4223 11.8026 23.1583 10.864C23.9049 9.92529 24.9129 9.21596 26.1823 8.73596C27.4516 8.24529 28.8863 7.99996 30.4863 7.99996C31.9796 7.99996 33.3609 8.22929 34.6303 8.68796C35.8996 9.13596 36.9183 9.81329 37.6863 10.72C38.4649 11.6266 38.8543 12.7786 38.8543 14.176C38.8543 14.4 38.8543 14.624 38.8543 14.848C38.8543 15.0613 38.8543 15.28 38.8543 15.504V21.52C38.8543 21.9573 38.8649 22.3786 38.8862 22.784C38.9183 23.1786 38.9823 23.5413 39.0783 23.872C39.1849 24.2453 39.3183 24.5546 39.4783 24.8C39.6383 25.0453 39.7716 25.216 39.8783 25.312H34.9982C34.9236 25.2373 34.8063 25.0826 34.6463 24.848C34.4969 24.6133 34.3689 24.3413 34.2622 24.032C34.1342 23.6586 34.0382 23.2853 33.9743 22.912C33.9209 22.528 33.8943 22.08 33.8943 21.568L34.9183 22.272C34.6196 22.976 34.1343 23.584 33.4622 24.096C32.8009 24.5973 32.0116 24.9866 31.0942 25.264C30.1876 25.5306 29.2063 25.664 28.1503 25.664ZM29.4783 21.952C30.2569 21.952 30.9823 21.8133 31.6543 21.536C32.3369 21.248 32.8916 20.8 33.3182 20.192C33.7449 19.584 33.9583 18.7893 33.9583 17.808V16.096L35.1903 17.296C34.4863 17.552 33.6703 17.7653 32.7423 17.936C31.8249 18.096 30.9076 18.224 29.9902 18.32C28.9023 18.4266 28.0863 18.6133 27.5423 18.88C27.0089 19.136 26.7423 19.5733 26.7423 20.192C26.7423 20.7786 26.9716 21.2213 27.4303 21.52C27.8889 21.808 28.5716 21.952 29.4783 21.952Z" fill="#EA3D3C"/>
<path d="M42.484 25.312V8.31996H47.46V14.176L46.436 13.536C46.5533 12.736 46.7667 12 47.076 11.328C47.3853 10.656 47.7853 10.0746 48.276 9.58396C48.7667 9.08262 49.348 8.69329 50.02 8.41596C50.7027 8.13862 51.4813 7.99996 52.356 7.99996C53.0387 7.99996 53.572 8.05329 53.956 8.15996C54.3507 8.25596 54.596 8.33062 54.692 8.38396L53.876 12.832C53.78 12.7786 53.5667 12.6933 53.236 12.576C52.9053 12.4586 52.4787 12.4 51.956 12.4C51.1027 12.4 50.388 12.544 49.812 12.832C49.236 13.12 48.772 13.504 48.42 13.984C48.0787 14.4533 47.8333 14.976 47.684 15.552C47.5347 16.128 47.46 16.7093 47.46 17.296V25.312H42.484Z" fill="#EA3D3C"/>
<path d="M63.9943 25.696C62.5756 25.696 61.2689 25.36 60.0742 24.688C58.8796 24.0053 57.9196 22.9973 57.1943 21.664C56.4689 20.3306 56.1063 18.688 56.1063 16.736C56.1063 14.8693 56.4743 13.2853 57.2103 11.984C57.9569 10.6826 58.9276 9.69596 60.1222 9.02396C61.3276 8.34129 62.6183 7.99996 63.9943 7.99996C65.3382 7.99996 66.5649 8.34129 67.6742 9.02396C68.7943 9.70662 69.6903 10.64 70.3623 11.824C71.0342 12.9973 71.3702 14.352 71.3702 15.888C71.3702 15.9413 71.3702 15.9946 71.3702 16.048C71.3702 16.0906 71.3702 16.1386 71.3702 16.192L69.2262 16.224C69.2262 16.192 69.2262 16.16 69.2262 16.128C69.2262 16.0853 69.2262 16.048 69.2262 16.016C69.2262 15.216 69.0342 14.528 68.6502 13.952C68.2662 13.376 67.7702 12.9333 67.1622 12.624C66.5542 12.304 65.9196 12.144 65.2582 12.144C64.1596 12.144 63.2103 12.512 62.4103 13.248C61.6103 13.9733 61.2103 15.136 61.2103 16.736C61.2103 18.336 61.6103 19.5146 62.4103 20.272C63.2209 21.0186 64.1702 21.392 65.2582 21.392C65.9409 21.392 66.5862 21.232 67.1942 20.912C67.8022 20.5813 68.2929 20.1173 68.6662 19.52C69.0396 18.9226 69.2262 18.2186 69.2262 17.408L71.3702 17.52C71.3702 19.0453 71.0396 20.4266 70.3783 21.664C69.7276 22.8906 68.8422 23.872 67.7222 24.608C66.6129 25.3333 65.3703 25.696 63.9943 25.696ZM69.2262 25.312V0.303955H74.2022V25.312H69.2262Z" fill="#EA3D3C"/>
<path d="M91.68 25.312L88.128 8.31996H91.744L95.312 23.904L94.496 23.936L96.72 8.31996H101.84L98.448 25.312H91.68ZM79.872 25.312L76.48 8.31996H81.6L83.824 23.936L83.024 23.904L86.56 8.31996H90.176L86.656 25.312H79.872Z" fill="#EA3D3C"/>
<path d="M105.982 18.304V15.024H117.246L116.766 15.856C116.766 15.7706 116.766 15.6906 116.766 15.616C116.766 15.5306 116.766 15.4506 116.766 15.376C116.766 14.768 116.622 14.1866 116.334 13.632C116.046 13.0666 115.598 12.608 114.99 12.256C114.392 11.8933 113.624 11.712 112.686 11.712C111.747 11.712 110.936 11.9146 110.254 12.32C109.582 12.7146 109.064 13.2853 108.702 14.032C108.35 14.7786 108.174 15.68 108.174 16.736C108.174 17.824 108.344 18.7573 108.686 19.536C109.038 20.304 109.555 20.896 110.238 21.312C110.931 21.728 111.79 21.936 112.814 21.936C113.475 21.936 114.046 21.8773 114.526 21.76C115.006 21.632 115.395 21.472 115.694 21.28C116.003 21.088 116.238 20.8746 116.398 20.64C116.558 20.4053 116.654 20.176 116.686 19.952H121.582C121.518 20.6666 121.272 21.3706 120.846 22.064C120.419 22.7466 119.827 23.3653 119.07 23.92C118.312 24.464 117.39 24.896 116.302 25.216C115.224 25.536 113.992 25.696 112.606 25.696C110.728 25.696 109.091 25.3226 107.694 24.576C106.296 23.8186 105.214 22.7786 104.446 21.456C103.678 20.1226 103.294 18.5866 103.294 16.848C103.294 15.088 103.683 13.5466 104.462 12.224C105.251 10.8906 106.344 9.85596 107.742 9.11996C109.15 8.37329 110.776 7.99996 112.622 7.99996C114.51 7.99996 116.142 8.37862 117.518 9.13596C118.894 9.88262 119.955 10.9333 120.702 12.288C121.448 13.632 121.822 15.2 121.822 16.992C121.822 17.2586 121.816 17.5146 121.806 17.76C121.795 18.0053 121.779 18.1866 121.758 18.304H105.982Z" fill="#EA3D3C"/>
<path d="M130.058 0.303955V25.312H125.161V0.303955H130.058Z" fill="#EA3D3C"/>
<path d="M139.151 0.303955V25.312H134.255V0.303955H139.151Z" fill="#EA3D3C"/>
</svg>
