<svg width="47" height="146" viewBox="0 0 47 146" fill="none" xmlns="http://www.w3.org/2000/svg">
<g opacity="0.22">
<g clip-path="url(#clip0_1_1612)">
<path d="M6.97961 83.8026C6.97961 85.7378 5.42099 87.3024 3.49322 87.3024C1.56546 87.3024 0 85.7378 0 83.8026C0 81.8674 1.55862 80.3027 3.48638 80.3027C5.41415 80.3027 6.97961 81.8674 6.97961 83.8026Z" fill="black"/>
<path d="M25.1075 87.3024C27.033 87.3024 28.5939 85.7355 28.5939 83.8026C28.5939 81.8697 27.033 80.3027 25.1075 80.3027C23.182 80.3027 21.6211 81.8697 21.6211 83.8026C21.6211 85.7355 23.182 87.3024 25.1075 87.3024Z" fill="black"/>
<path d="M46.7325 87.3024C48.658 87.3024 50.2189 85.7355 50.2189 83.8026C50.2189 81.8697 48.658 80.3027 46.7325 80.3027C44.807 80.3027 43.2461 81.8697 43.2461 83.8026C43.2461 85.7355 44.807 87.3024 46.7325 87.3024Z" fill="black"/>
<path d="M6.97961 103.237C6.97961 105.172 5.42099 106.737 3.49322 106.737C1.56546 106.737 0 105.172 0 103.237C0 101.302 1.55862 99.7371 3.48638 99.7371C5.41415 99.7371 6.97961 101.302 6.97961 103.237Z" fill="black"/>
<path d="M25.1075 106.737C27.033 106.737 28.5939 105.17 28.5939 103.237C28.5939 101.304 27.033 99.7371 25.1075 99.7371C23.182 99.7371 21.6211 101.304 21.6211 103.237C21.6211 105.17 23.182 106.737 25.1075 106.737Z" fill="black"/>
<path d="M46.7325 106.737C48.658 106.737 50.2189 105.17 50.2189 103.237C50.2189 101.304 48.658 99.7371 46.7325 99.7371C44.807 99.7371 43.2461 101.304 43.2461 103.237C43.2461 105.17 44.807 106.737 46.7325 106.737Z" fill="black"/>
<path d="M6.97961 122.671C6.97961 124.607 5.42099 126.171 3.49322 126.171C1.56546 126.171 0 124.607 0 122.671C0 120.736 1.55862 119.172 3.48638 119.172C5.41415 119.172 6.97961 120.736 6.97961 122.671Z" fill="black"/>
<path d="M25.1075 126.171C27.033 126.171 28.5939 124.604 28.5939 122.671C28.5939 120.739 27.033 119.172 25.1075 119.172C23.182 119.172 21.6211 120.739 21.6211 122.671C21.6211 124.604 23.182 126.171 25.1075 126.171Z" fill="black"/>
<path d="M46.7325 126.171C48.658 126.171 50.2189 124.604 50.2189 122.671C50.2189 120.739 48.658 119.172 46.7325 119.172C44.807 119.172 43.2461 120.739 43.2461 122.671C43.2461 124.604 44.807 126.171 46.7325 126.171Z" fill="black"/>
<path d="M6.97961 142.106C6.97961 144.041 5.42099 145.606 3.49322 145.606C1.56546 145.606 0 144.034 0 142.106C0 140.177 1.55862 138.606 3.48638 138.606C5.41415 138.606 6.97961 140.171 6.97961 142.106Z" fill="black"/>
<path d="M25.1075 145.606C27.033 145.606 28.5939 144.039 28.5939 142.106C28.5939 140.173 27.033 138.606 25.1075 138.606C23.182 138.606 21.6211 140.173 21.6211 142.106C21.6211 144.039 23.182 145.606 25.1075 145.606Z" fill="black"/>
<path d="M46.7325 145.606C48.658 145.606 50.2189 144.039 50.2189 142.106C50.2189 140.173 48.658 138.606 46.7325 138.606C44.807 138.606 43.2461 140.173 43.2461 142.106C43.2461 144.039 44.807 145.606 46.7325 145.606Z" fill="black"/>
</g>
<g clip-path="url(#clip1_1_1612)">
<path d="M6.97961 3.49984C6.97961 5.43505 5.42099 6.99968 3.49322 6.99968C1.56546 6.99968 0 5.43505 0 3.49984C0 1.56463 1.55862 0 3.48638 0C5.41415 0 6.97961 1.56463 6.97961 3.49984Z" fill="black"/>
<path d="M25.1075 6.99968C27.033 6.99968 28.5939 5.43275 28.5939 3.49984C28.5939 1.56693 27.033 0 25.1075 0C23.182 0 21.6211 1.56693 21.6211 3.49984C21.6211 5.43275 23.182 6.99968 25.1075 6.99968Z" fill="black"/>
<path d="M46.7325 6.99968C48.658 6.99968 50.2189 5.43275 50.2189 3.49984C50.2189 1.56693 48.658 0 46.7325 0C44.807 0 43.2461 1.56693 43.2461 3.49984C43.2461 5.43275 44.807 6.99968 46.7325 6.99968Z" fill="black"/>
<path d="M6.97961 22.9342C6.97961 24.8694 5.42099 26.434 3.49322 26.434C1.56546 26.434 0 24.8694 0 22.9342C0 20.999 1.55862 19.4343 3.48638 19.4343C5.41415 19.4343 6.97961 20.999 6.97961 22.9342Z" fill="black"/>
<path d="M25.1075 26.434C27.033 26.434 28.5939 24.8671 28.5939 22.9342C28.5939 21.0013 27.033 19.4343 25.1075 19.4343C23.182 19.4343 21.6211 21.0013 21.6211 22.9342C21.6211 24.8671 23.182 26.434 25.1075 26.434Z" fill="black"/>
<path d="M46.7325 26.434C48.658 26.434 50.2189 24.8671 50.2189 22.9342C50.2189 21.0013 48.658 19.4343 46.7325 19.4343C44.807 19.4343 43.2461 21.0013 43.2461 22.9342C43.2461 24.8671 44.807 26.434 46.7325 26.434Z" fill="black"/>
<path d="M6.97961 42.3687C6.97961 44.3039 5.42099 45.8686 3.49322 45.8686C1.56546 45.8686 0 44.3039 0 42.3687C0 40.4335 1.55862 38.8689 3.48638 38.8689C5.41415 38.8689 6.97961 40.4335 6.97961 42.3687Z" fill="black"/>
<path d="M25.1075 45.8686C27.033 45.8686 28.5939 44.3016 28.5939 42.3687C28.5939 40.4358 27.033 38.8689 25.1075 38.8689C23.182 38.8689 21.6211 40.4358 21.6211 42.3687C21.6211 44.3016 23.182 45.8686 25.1075 45.8686Z" fill="black"/>
<path d="M46.7325 45.8686C48.658 45.8686 50.2189 44.3016 50.2189 42.3687C50.2189 40.4358 48.658 38.8689 46.7325 38.8689C44.807 38.8689 43.2461 40.4358 43.2461 42.3687C43.2461 44.3016 44.807 45.8686 46.7325 45.8686Z" fill="black"/>
<path d="M6.97961 61.8031C6.97961 63.7383 5.42099 65.3029 3.49322 65.3029C1.56546 65.3029 0 63.7314 0 61.8031C0 59.8747 1.55862 58.3032 3.48638 58.3032C5.41415 58.3032 6.97961 59.8679 6.97961 61.8031Z" fill="black"/>
<path d="M25.1075 65.3029C27.033 65.3029 28.5939 63.736 28.5939 61.8031C28.5939 59.8702 27.033 58.3032 25.1075 58.3032C23.182 58.3032 21.6211 59.8702 21.6211 61.8031C21.6211 63.736 23.182 65.3029 25.1075 65.3029Z" fill="black"/>
<path d="M46.7325 65.3029C48.658 65.3029 50.2189 63.736 50.2189 61.8031C50.2189 59.8702 48.658 58.3032 46.7325 58.3032C44.807 58.3032 43.2461 59.8702 43.2461 61.8031C43.2461 63.736 44.807 65.3029 46.7325 65.3029Z" fill="black"/>
</g>
</g>
<defs>
<clipPath id="clip0_1_1612">
<rect width="71.8332" height="65.3029" fill="white" transform="translate(0 80.3027)"/>
</clipPath>
<clipPath id="clip1_1_1612">
<rect width="71.8332" height="65.3029" fill="white"/>
</clipPath>
</defs>
</svg>
