<svg width="49" height="146" viewBox="0 0 49 146" fill="none" xmlns="http://www.w3.org/2000/svg">
<g opacity="0.22">
<g clip-path="url(#clip0_1_1519)">
<path d="M1.93951 87.3024C3.86499 87.3024 5.4259 85.7355 5.4259 83.8026C5.4259 81.8697 3.86499 80.3027 1.93951 80.3027C0.0140326 80.3027 -1.54688 81.8697 -1.54688 83.8026C-1.54688 85.7355 0.0140326 87.3024 1.93951 87.3024Z" fill="black"/>
<path d="M23.5645 87.3024C25.49 87.3024 27.0509 85.7355 27.0509 83.8026C27.0509 81.8697 25.49 80.3027 23.5645 80.3027C21.639 80.3027 20.0781 81.8697 20.0781 83.8026C20.0781 85.7355 21.639 87.3024 23.5645 87.3024Z" fill="black"/>
<path d="M48.6642 83.8026C48.6642 85.7378 47.1056 87.3024 45.1778 87.3024C43.25 87.3024 41.6914 85.7378 41.6914 83.8026C41.6914 81.8674 43.25 80.3027 45.1778 80.3027C47.1056 80.3027 48.6642 81.8674 48.6642 83.8026Z" fill="black"/>
<path d="M1.93951 106.737C3.86499 106.737 5.4259 105.17 5.4259 103.237C5.4259 101.304 3.86499 99.7371 1.93951 99.7371C0.0140326 99.7371 -1.54688 101.304 -1.54688 103.237C-1.54688 105.17 0.0140326 106.737 1.93951 106.737Z" fill="black"/>
<path d="M23.5645 106.737C25.49 106.737 27.0509 105.17 27.0509 103.237C27.0509 101.304 25.49 99.7371 23.5645 99.7371C21.639 99.7371 20.0781 101.304 20.0781 103.237C20.0781 105.17 21.639 106.737 23.5645 106.737Z" fill="black"/>
<path d="M48.6642 103.237C48.6642 105.172 47.1056 106.737 45.1778 106.737C43.25 106.737 41.6914 105.172 41.6914 103.237C41.6914 101.302 43.25 99.7371 45.1778 99.7371C47.1056 99.7371 48.6642 101.302 48.6642 103.237Z" fill="black"/>
<path d="M1.93951 126.171C3.86499 126.171 5.4259 124.604 5.4259 122.671C5.4259 120.739 3.86499 119.172 1.93951 119.172C0.0140326 119.172 -1.54688 120.739 -1.54688 122.671C-1.54688 124.604 0.0140326 126.171 1.93951 126.171Z" fill="black"/>
<path d="M23.5645 126.171C25.49 126.171 27.0509 124.604 27.0509 122.671C27.0509 120.739 25.49 119.172 23.5645 119.172C21.639 119.172 20.0781 120.739 20.0781 122.671C20.0781 124.604 21.639 126.171 23.5645 126.171Z" fill="black"/>
<path d="M48.6642 122.671C48.6642 124.607 47.1056 126.171 45.1778 126.171C43.25 126.171 41.6914 124.607 41.6914 122.671C41.6914 120.736 43.25 119.172 45.1778 119.172C47.1056 119.172 48.6642 120.736 48.6642 122.671Z" fill="black"/>
<path d="M1.93951 145.606C3.86499 145.606 5.4259 144.039 5.4259 142.106C5.4259 140.173 3.86499 138.606 1.93951 138.606C0.0140326 138.606 -1.54688 140.173 -1.54688 142.106C-1.54688 144.039 0.0140326 145.606 1.93951 145.606Z" fill="black"/>
<path d="M23.5645 145.606C25.49 145.606 27.0509 144.039 27.0509 142.106C27.0509 140.173 25.49 138.606 23.5645 138.606C21.639 138.606 20.0781 140.173 20.0781 142.106C20.0781 144.039 21.639 145.606 23.5645 145.606Z" fill="black"/>
<path d="M48.6642 142.106C48.6642 144.041 47.1056 145.606 45.1778 145.606C43.25 145.606 41.6914 144.041 41.6914 142.106C41.6914 140.171 43.25 138.606 45.1778 138.606C47.1056 138.606 48.6642 140.171 48.6642 142.106Z" fill="black"/>
</g>
<g clip-path="url(#clip1_1_1519)">
<path d="M1.93951 6.99968C3.86499 6.99968 5.4259 5.43275 5.4259 3.49984C5.4259 1.56693 3.86499 0 1.93951 0C0.0140326 0 -1.54688 1.56693 -1.54688 3.49984C-1.54688 5.43275 0.0140326 6.99968 1.93951 6.99968Z" fill="black"/>
<path d="M23.5645 6.99968C25.49 6.99968 27.0509 5.43275 27.0509 3.49984C27.0509 1.56693 25.49 0 23.5645 0C21.639 0 20.0781 1.56693 20.0781 3.49984C20.0781 5.43275 21.639 6.99968 23.5645 6.99968Z" fill="black"/>
<path d="M48.6642 3.49984C48.6642 5.43505 47.1056 6.99968 45.1778 6.99968C43.25 6.99968 41.6914 5.43505 41.6914 3.49984C41.6914 1.56463 43.25 0 45.1778 0C47.1056 0 48.6642 1.56463 48.6642 3.49984Z" fill="black"/>
<path d="M1.93951 26.434C3.86499 26.434 5.4259 24.8671 5.4259 22.9342C5.4259 21.0013 3.86499 19.4343 1.93951 19.4343C0.0140326 19.4343 -1.54688 21.0013 -1.54688 22.9342C-1.54688 24.8671 0.0140326 26.434 1.93951 26.434Z" fill="black"/>
<path d="M23.5645 26.434C25.49 26.434 27.0509 24.8671 27.0509 22.9342C27.0509 21.0013 25.49 19.4343 23.5645 19.4343C21.639 19.4343 20.0781 21.0013 20.0781 22.9342C20.0781 24.8671 21.639 26.434 23.5645 26.434Z" fill="black"/>
<path d="M48.6642 22.9342C48.6642 24.8694 47.1056 26.434 45.1778 26.434C43.25 26.434 41.6914 24.8694 41.6914 22.9342C41.6914 20.999 43.25 19.4343 45.1778 19.4343C47.1056 19.4343 48.6642 20.999 48.6642 22.9342Z" fill="black"/>
<path d="M1.93951 45.8686C3.86499 45.8686 5.4259 44.3016 5.4259 42.3687C5.4259 40.4358 3.86499 38.8689 1.93951 38.8689C0.0140326 38.8689 -1.54688 40.4358 -1.54688 42.3687C-1.54688 44.3016 0.0140326 45.8686 1.93951 45.8686Z" fill="black"/>
<path d="M23.5645 45.8686C25.49 45.8686 27.0509 44.3016 27.0509 42.3687C27.0509 40.4358 25.49 38.8689 23.5645 38.8689C21.639 38.8689 20.0781 40.4358 20.0781 42.3687C20.0781 44.3016 21.639 45.8686 23.5645 45.8686Z" fill="black"/>
<path d="M48.6642 42.3687C48.6642 44.3039 47.1056 45.8686 45.1778 45.8686C43.25 45.8686 41.6914 44.3039 41.6914 42.3687C41.6914 40.4335 43.25 38.8689 45.1778 38.8689C47.1056 38.8689 48.6642 40.4335 48.6642 42.3687Z" fill="black"/>
<path d="M1.93951 65.3029C3.86499 65.3029 5.4259 63.736 5.4259 61.8031C5.4259 59.8702 3.86499 58.3032 1.93951 58.3032C0.0140326 58.3032 -1.54688 59.8702 -1.54688 61.8031C-1.54688 63.736 0.0140326 65.3029 1.93951 65.3029Z" fill="black"/>
<path d="M23.5645 65.3029C25.49 65.3029 27.0509 63.736 27.0509 61.8031C27.0509 59.8702 25.49 58.3032 23.5645 58.3032C21.639 58.3032 20.0781 59.8702 20.0781 61.8031C20.0781 63.736 21.639 65.3029 23.5645 65.3029Z" fill="black"/>
<path d="M48.6642 61.8031C48.6642 63.7383 47.1056 65.3029 45.1778 65.3029C43.25 65.3029 41.6914 63.7383 41.6914 61.8031C41.6914 59.8679 43.25 58.3032 45.1778 58.3032C47.1056 58.3032 48.6642 59.8679 48.6642 61.8031Z" fill="black"/>
</g>
</g>
<defs>
<clipPath id="clip0_1_1519">
<rect width="71.8332" height="65.3029" fill="white" transform="translate(-23.168 80.3027)"/>
</clipPath>
<clipPath id="clip1_1_1519">
<rect width="71.8332" height="65.3029" fill="white" transform="translate(-23.168)"/>
</clipPath>
</defs>
</svg>
