<svg width="17" height="16" viewBox="0 0 17 16" fill="none" xmlns="http://www.w3.org/2000/svg">
<path fill-rule="evenodd" clip-rule="evenodd" d="M8.89227 0.220215C6.71743 0.220215 6.44658 0.229186 5.59132 0.267634C2.68263 0.395795 1.06818 1.94526 0.934752 4.73917C0.896059 5.56068 0.886719 5.82213 0.886719 7.90987C0.886719 9.99889 0.896059 10.2603 0.934752 11.0806C1.06818 13.8732 2.68263 15.4252 5.59132 15.5534C6.44658 15.5906 6.71743 15.5995 8.89227 15.5995C11.0671 15.5995 11.3393 15.5906 12.1946 15.5534C15.0979 15.4252 16.719 13.8758 16.8498 11.0806C16.8885 10.2603 16.8978 9.99889 16.8978 7.90987C16.8978 5.82213 16.8885 5.56068 16.8498 4.73917C16.719 1.94911 15.1033 0.394514 12.1946 0.267634C11.3393 0.229186 11.0671 0.220215 8.89227 0.220215ZM8.89135 1.60742C11.0288 1.60742 11.2823 1.61511 12.1269 1.65228C14.2978 1.74712 15.3091 2.73524 15.4092 4.80376C15.4466 5.61501 15.4546 5.85724 15.4546 7.91038C15.4546 9.96351 15.4466 10.207 15.4092 11.017C15.3091 13.0842 14.2991 14.0749 12.1269 14.1698C11.2823 14.2056 11.0302 14.2146 8.89135 14.2146C6.75386 14.2146 6.50035 14.2069 5.6571 14.1698C3.48226 14.0736 2.47489 13.0817 2.37482 11.017C2.33746 10.207 2.32812 9.96351 2.32812 7.91038C2.32812 5.85724 2.33746 5.61373 2.37482 4.80376C2.47356 2.73396 3.48493 1.74584 5.6571 1.651C6.50035 1.61383 6.75386 1.60742 8.89135 1.60742ZM4.78125 7.91006C4.78125 5.72876 6.62253 3.96143 8.8921 3.96143C11.1617 3.96143 13.003 5.73005 13.003 7.91006C13.003 10.0914 11.1617 11.8587 8.8921 11.8587C6.62253 11.8587 4.78125 10.0914 4.78125 7.91006ZM8.89117 10.4731C7.41682 10.4731 6.22266 9.32608 6.22266 7.9099C6.22266 6.495 7.41682 5.34668 8.89117 5.34668C10.3642 5.34668 11.561 6.49372 11.561 7.9099C11.561 9.32608 10.3642 10.4731 8.89117 10.4731ZM12.2031 3.80606C12.2031 3.29598 12.6341 2.8833 13.1638 2.8833C13.6962 2.8833 14.1258 3.29598 14.1258 3.80606C14.1258 4.31614 13.6948 4.72882 13.1638 4.72882C12.6328 4.72882 12.2031 4.31486 12.2031 3.80606Z" fill="white"/>
</svg>
