<svg width="17" height="13" viewBox="0 0 17 13" fill="none" xmlns="http://www.w3.org/2000/svg">
<path d="M16.8588 1.62284C16.2704 1.87403 15.6366 2.0432 14.9721 2.1201C15.6513 1.72921 16.1703 1.11147 16.4171 0.374549C15.782 0.735963 15.0789 0.998693 14.3303 1.13967C13.7326 0.525779 12.8773 0.142578 11.934 0.142578C9.81254 0.142578 8.25413 2.0432 8.73313 4.01688C6.00457 3.88488 3.58289 2.6289 1.9631 0.720584C1.1025 2.13804 1.51745 3.99381 2.9798 4.93323C2.4421 4.91657 1.93641 4.77431 1.49344 4.5385C1.45741 5.99953 2.54884 7.36701 4.1286 7.67203C3.66695 7.7925 3.15993 7.8207 2.6449 7.72586C3.06253 8.97927 4.27804 9.8905 5.7137 9.91613C4.33007 10.9568 2.59153 11.422 0.847656 11.2247C2.302 12.1205 4.0272 12.6421 5.88182 12.6421C11.982 12.6421 15.4271 7.69382 15.219 3.25561C15.8621 2.81217 16.4185 2.25595 16.8588 1.62284Z" fill="white"/>
</svg>
