<svg width="57" height="56" viewBox="0 0 57 56" fill="none" xmlns="http://www.w3.org/2000/svg">
<path d="M43.5938 13.75C46.8557 13.75 49.5 11.1057 49.5 7.84375C49.5 4.58182 46.8557 1.9375 43.5938 1.9375C40.3318 1.9375 37.6875 4.58182 37.6875 7.84375C37.6875 11.1057 40.3318 13.75 43.5938 13.75Z" stroke="#25373F" stroke-width="3" stroke-miterlimit="10" stroke-linecap="round" stroke-linejoin="round"/>
<path d="M29.8111 13.75L19.4135 26.0376C18.9186 26.6227 18.5578 27.309 18.3564 28.0484C18.155 28.7878 18.1179 29.5623 18.2478 30.3176C18.3776 31.0728 18.6712 31.7905 19.1079 32.4201C19.5447 33.0498 20.114 33.5763 20.7758 33.9625L29.8702 39.2676C30.0282 39.3606 30.1649 39.4857 30.2716 39.6348C30.3783 39.7838 30.4526 39.9536 30.4897 40.1332C30.5268 40.3127 30.5259 40.498 30.487 40.6772C30.4481 40.8563 30.3721 41.0254 30.2639 41.1734L20.6236 54.4375" stroke="#25373F" stroke-width="3" stroke-miterlimit="10" stroke-linecap="round" stroke-linejoin="round"/>
<path d="M10.125 17.6875L14.85 10.6C15.0032 10.3696 15.2253 10.1935 15.4846 10.0968C15.7439 10.0002 16.0271 9.98795 16.2937 10.0619L29.8125 13.75L40.3125 21.625L46.35 32.486C46.4987 32.7534 46.7361 32.9606 47.0213 33.0715C47.3065 33.1825 47.6215 33.1903 47.9119 33.0936L54.75 30.8125" stroke="#25373F" stroke-width="3" stroke-miterlimit="10" stroke-linecap="round" stroke-linejoin="round"/>
<path d="M40.3125 21.625L31.125 32.4938" stroke="#25373F" stroke-width="3" stroke-miterlimit="10" stroke-linecap="round" stroke-linejoin="round"/>
<path d="M15.375 38.6875L2.25 54.4375" stroke="#25373F" stroke-width="3" stroke-miterlimit="10" stroke-linecap="round" stroke-linejoin="round"/>
</svg>
